<svg width="118" height="107" viewBox="0 0 118 107" fill="none" xmlns="http://www.w3.org/2000/svg">
<path d="M34.1584 0.462419L43.7959 8.79315C33.6683 11.4067 29.0946 19.0841 27.9512 20.7175C27.1344 12.3868 29.258 3.56602 30.238 1.4425C31.0221 -0.256311 33.1783 0.081274 34.1584 0.462419Z" fill="url(#paint0_linear_358_8)"/>
<path d="M83.9308 0.433111L74.456 8.94852C84.6322 11.3659 89.3534 18.9534 90.5282 20.5645C91.1838 12.2195 88.8902 3.44144 87.8693 1.33726C87.0526 -0.346089 84.9033 0.0330987 83.9308 0.433111Z" fill="url(#paint1_linear_358_8)"/>
<path d="M92.8275 28.2122C90.3799 9.44252 70.7988 5.65566 58.5607 6.64353C56.6026 6.64353 28.6996 4.50312 25.7624 28.2122C23.6412 52.7445 41.9168 54.5556 58.5607 53.7324C76.1836 55.0496 95.6015 52.2506 92.8275 28.2122Z" fill="url(#paint2_linear_358_8)"/>
<path d="M57.0781 41.953V39.0127L58.7116 39.8294V41.953C58.7116 42.7697 58.2428 43.7716 56.2614 44.0765C54.1379 44.4032 54.6279 41.7896 55.2813 41.953C56.0931 42.1559 56.9148 42.443 57.0781 41.953Z" fill="#FDEBA3"/>
<path d="M61.582 41.953V39.0127L59.9486 39.8294V41.953C59.9485 42.7697 60.4174 43.7716 62.3988 44.0765C64.5223 44.4032 64.0322 41.7896 63.3789 41.953C62.5671 42.1559 61.7454 42.443 61.582 41.953Z" fill="#FDEBA3"/>
<path d="M60.351 39.9838C59.6176 40.5766 58.5699 40.5766 57.8365 39.9838L56.9973 39.3054C55.5309 38.1202 56.369 35.75 58.2545 35.75H59.933C61.8185 35.75 62.6566 38.1202 61.1902 39.3054L60.351 39.9838Z" fill="#FB9895"/>
<path d="M88.0438 60.738C91.0056 58.0231 86.9799 56.491 85.4303 56.491C82.9801 56.491 78.9347 59.7479 79.3864 61.5547C80.0398 64.1683 84.1235 64.3317 88.0438 60.738Z" fill="url(#paint3_linear_358_8)"/>
<path d="M104.379 39.5027C102.309 37.7982 99.8053 38.5226 98.3352 39.5027C94.9049 41.9529 97.1917 47.6048 98.3352 48.9769C99.1519 49.957 104.379 51.4271 105.686 47.5067C106.993 43.5864 106.449 41.2072 104.379 39.5027Z" fill="url(#paint4_linear_358_8)"/>
<path d="M116.14 49.9571C113.526 47.4742 110.422 49.3037 109.606 50.2838C108.789 50.9372 107.482 56.3276 109.606 58.6145C111.729 60.9014 114.506 59.1045 115.486 58.6145C116.466 58.1244 119.407 53.0607 116.14 49.9571Z" fill="url(#paint5_linear_358_8)"/>
<path d="M83.3085 90.7672C81.1837 92.9174 79.5502 93.2441 78.0336 91.9126C76.4646 90.4672 77.0906 88.3555 78.7431 86.5616C80.412 84.75 82.3271 84.0966 84.018 85.4163C85.7574 87.2002 85.104 88.9502 83.3085 90.7672Z" fill="url(#paint6_linear_358_8)"/>
<path d="M99.152 78.0527C99.3154 80.1762 97.8453 81.483 94.415 81.1563C91.7987 81.1563 90.0046 80.3395 89.6779 78.0527C89.1878 75.9291 91.7987 74.2957 94.415 74.2957C97.0312 74.2957 99.3154 76.2558 99.152 78.0527Z" fill="url(#paint7_linear_358_8)"/>
<path d="M29.5968 60.738C26.635 58.0231 30.6607 56.491 32.2104 56.491C34.6606 56.491 38.7059 59.7479 38.2542 61.5547C37.6008 64.1683 33.5171 64.3317 29.5968 60.738Z" fill="url(#paint8_linear_358_8)"/>
<path d="M13.2616 39.5027C15.3314 37.7982 17.8353 38.5226 19.3055 39.5027C22.7358 41.9529 20.4489 47.6048 19.3055 48.9769C18.4887 49.957 13.2616 51.4271 11.9548 47.5067C10.648 43.5864 11.1918 41.2072 13.2616 39.5027Z" fill="url(#paint9_linear_358_8)"/>
<path d="M1.50099 49.9571C4.11456 47.4742 7.21817 49.3037 8.0349 50.2838C8.85164 50.9372 10.1584 56.3276 8.0349 58.6145C5.91138 60.9014 3.13447 59.1045 2.15439 58.6145C1.1743 58.1244 -1.76596 53.0607 1.50099 49.9571Z" fill="url(#paint10_linear_358_8)"/>
<path d="M34.3321 90.7672C36.4569 92.9174 38.0904 93.2441 39.607 91.9126C41.176 90.4672 40.55 88.3555 38.8975 86.5616C37.2286 84.75 35.3135 84.0966 33.6226 85.4163C31.8832 87.2002 32.5366 88.9502 34.3321 90.7672Z" fill="url(#paint11_linear_358_8)"/>
<path d="M18.4886 78.0527C18.3252 80.1762 19.7954 81.483 23.2257 81.1563C25.8419 81.1563 27.6361 80.3395 27.9628 78.0527C28.4528 75.9291 25.8419 74.2957 23.2257 74.2957C20.6095 74.2957 18.3252 76.2558 18.4886 78.0527Z" fill="url(#paint12_linear_358_8)"/>
<path d="M96.9086 63.0939C100.017 57.038 99.6895 54.5829 100.017 50H102.797C102.928 50 102.525 56.4378 102.307 59.6567C102.045 61.7518 100.126 65.549 99.1987 67.1857C99.6894 67.6767 104.433 66.8584 106.396 66.531C107.967 66.2692 109.341 64.1305 109.831 63.0939C110.486 62.7011 110.758 60.6388 110.813 59.6567H113.594C113.594 61.6208 112.721 65.058 112.285 66.531C111.5 68.6261 108.468 70.4592 107.051 71.1139C104.76 72.7506 98.4726 71.6233 96.745 71.2776C95.1092 70.9502 89.2748 69.9682 87.9117 70.2955C82.3499 71.6311 74.8253 73.078 71.0629 75.0421C66.7326 77.3027 65.8283 80.7706 65.174 82.7347C65.174 86.6083 65.0104 96.1559 65.3376 98.611C66.1555 101.721 68.6092 102.376 70.0814 102.376C71.3229 102.376 73.1894 101.612 73.8437 101.066C75.4867 99.6963 75.316 95.9923 75.9703 94.8466C76.7181 93.5372 78.424 94.8466 78.424 95.9923C78.2604 99.9204 76.6839 103.248 75.4867 104.176C71.39 106.958 69.4271 106.795 66.3262 105.976C62.3931 104.34 61.0371 99.975 60.928 97.7927C60.9825 87.263 60.7317 65.2544 60.6008 61.4571C60.47 57.6599 62.1821 54.8556 63.0546 53.9282C64.7449 53.819 68.8382 53.7318 71.0629 53.6008C66.7444 55.303 65.072 60.2569 64.8539 62.6029V74.3874C64.9848 73.8636 68.1185 71.3321 70.0814 70.2955C76.352 68.2769 88.2388 64.8943 90.8561 65.8763C92.9394 66.658 95.5615 65.7187 96.9086 63.0939Z" fill="url(#paint13_linear_358_8)"/>
<path d="M20.7789 63.0939C17.6709 57.038 17.998 54.5829 17.6709 50H14.8901C14.7592 50 15.1627 56.4378 15.3808 59.6567C15.6425 61.7518 17.5619 65.549 18.4888 67.1857C17.9981 67.6767 13.2542 66.8584 11.2913 66.531C9.72091 66.2692 8.34684 64.1305 7.8561 63.0939C7.20178 62.7011 6.92914 60.6388 6.87462 59.6567H4.09375C4.09375 61.6208 4.96618 65.058 5.40239 66.531C6.18758 68.6261 9.21926 70.4592 10.637 71.1139C12.9271 72.7506 19.2149 71.6233 20.9425 71.2776C22.5783 70.9502 28.4127 69.9682 29.7758 70.2955C35.3376 71.6311 42.8622 73.078 46.6246 75.0421C50.9549 77.3027 51.8592 80.7706 52.5135 82.7347C52.5135 86.6083 52.6771 96.1559 52.3499 98.611C51.532 101.721 49.0783 102.376 47.6061 102.376C46.3646 102.376 44.4981 101.612 43.8438 101.066C42.2008 99.6963 42.3715 95.9923 41.7172 94.8466C40.9694 93.5372 39.2635 94.8466 39.2635 95.9923C39.4271 99.9204 41.0036 103.248 42.2008 104.176C46.2975 106.958 48.2604 106.795 51.3613 105.976C55.2944 104.34 56.6504 99.975 56.7595 97.7927C56.705 87.263 56.9558 65.2544 57.0867 61.4571C57.2175 57.6599 55.5054 54.8556 54.6329 53.9282C52.9426 53.819 48.8493 53.7318 46.6246 53.6008C50.9431 55.303 52.6155 60.2569 52.8336 62.6029V74.3874C52.7027 73.8636 49.569 71.3321 47.6061 70.2955C41.3355 68.2769 29.4487 64.8943 26.8314 65.8763C24.7481 66.658 22.126 65.7187 20.7789 63.0939Z" fill="url(#paint14_linear_358_8)"/>
<path d="M48.7247 40.9498C42.6333 36.399 38.2278 46.1674 29.2388 44.2398" stroke="#FD8D85" stroke-width="2" stroke-linecap="round"/>
<path d="M69.661 40.9498C75.7525 36.399 80.1579 46.1674 89.1469 44.2398" stroke="#FD8D85" stroke-width="2" stroke-linecap="round"/>
<path d="M48.0244 44.0762C43.4507 43.2594 38.8769 46.0363 38.8769 46.0363" stroke="#FD8D85" stroke-width="2" stroke-linecap="round"/>
<path d="M70.6885 44.0762C75.2622 43.2594 79.8359 46.0363 79.8359 46.0363" stroke="#FD8D85" stroke-width="2" stroke-linecap="round"/>
<path d="M40.0205 38.3591C37.897 37.2157 30.7097 36.889 28.2595 39.1735" stroke="#FD8D85" stroke-width="2" stroke-linecap="round"/>
<path d="M78.6924 38.3591C80.8159 37.2157 88.0032 36.889 90.4534 39.1735" stroke="#FD8D85" stroke-width="2" stroke-linecap="round"/>
<circle cx="43.9401" cy="30.5185" r="5.88052" fill="#FFF7A7"/>
<circle cx="74.6491" cy="30.5185" r="5.88052" fill="#FFF7A7"/>
<defs>
<linearGradient id="paint0_linear_358_8" x1="36.2018" y1="-5.49178" x2="23.2319" y2="-2.75285" gradientUnits="userSpaceOnUse">
<stop stop-color="#E4A080"/>
<stop offset="0.479167" stop-color="#F08A6E"/>
<stop offset="1" stop-color="#FD7760"/>
</linearGradient>
<linearGradient id="paint1_linear_358_8" x1="81.7727" y1="-5.48049" x2="94.7931" y2="-2.9927" gradientUnits="userSpaceOnUse">
<stop stop-color="#E4A080"/>
<stop offset="0.479167" stop-color="#F08A6E"/>
<stop offset="1" stop-color="#FD7760"/>
</linearGradient>
<linearGradient id="paint2_linear_358_8" x1="59.3766" y1="8.61928" x2="59.3766" y2="53.897" gradientUnits="userSpaceOnUse">
<stop stop-color="#BF92FA"/>
<stop offset="0.447917" stop-color="#783FC2"/>
<stop offset="0.895833" stop-color="#4D0F9E"/>
</linearGradient>
<linearGradient id="paint3_linear_358_8" x1="79.7131" y1="61.2281" x2="88.5339" y2="57.9611" gradientUnits="userSpaceOnUse">
<stop stop-color="#FFE17C"/>
<stop offset="1" stop-color="#FFC02C"/>
</linearGradient>
<linearGradient id="paint4_linear_358_8" x1="101.458" y1="38.4783" x2="101.458" y2="50.0795" gradientUnits="userSpaceOnUse">
<stop stop-color="#EEDEAE"/>
<stop offset="1" stop-color="#FFC129"/>
</linearGradient>
<linearGradient id="paint5_linear_358_8" x1="113.047" y1="48.7107" x2="113.047" y2="59.7488" gradientUnits="userSpaceOnUse">
<stop stop-color="#8ADCFF"/>
<stop offset="1" stop-color="#287DFF"/>
</linearGradient>
<linearGradient id="paint6_linear_358_8" x1="84.0207" y1="85.4188" x2="78.0363" y2="91.9151" gradientUnits="userSpaceOnUse">
<stop stop-color="#E07CEE"/>
<stop offset="1" stop-color="#C13DFF"/>
</linearGradient>
<linearGradient id="paint7_linear_358_8" x1="98.662" y1="77.8893" x2="89.6779" y2="77.8893" gradientUnits="userSpaceOnUse">
<stop stop-color="#FE6650"/>
<stop offset="1" stop-color="#FFAC7C"/>
</linearGradient>
<linearGradient id="paint8_linear_358_8" x1="37.9275" y1="61.2281" x2="29.1067" y2="57.9611" gradientUnits="userSpaceOnUse">
<stop stop-color="#FFE17C"/>
<stop offset="1" stop-color="#FFC02C"/>
</linearGradient>
<linearGradient id="paint9_linear_358_8" x1="16.1825" y1="38.4783" x2="16.1825" y2="50.0795" gradientUnits="userSpaceOnUse">
<stop stop-color="#EEDEAE"/>
<stop offset="1" stop-color="#FFC129"/>
</linearGradient>
<linearGradient id="paint10_linear_358_8" x1="4.59392" y1="48.7107" x2="4.59392" y2="59.7488" gradientUnits="userSpaceOnUse">
<stop stop-color="#8ADCFF"/>
<stop offset="1" stop-color="#287DFF"/>
</linearGradient>
<linearGradient id="paint11_linear_358_8" x1="33.6199" y1="85.4188" x2="39.6043" y2="91.9151" gradientUnits="userSpaceOnUse">
<stop stop-color="#E07CEE"/>
<stop offset="1" stop-color="#C13DFF"/>
</linearGradient>
<linearGradient id="paint12_linear_358_8" x1="18.9786" y1="77.8893" x2="27.9628" y2="77.8893" gradientUnits="userSpaceOnUse">
<stop stop-color="#FE6650"/>
<stop offset="1" stop-color="#FFAC7C"/>
</linearGradient>
<linearGradient id="paint13_linear_358_8" x1="105.742" y1="55.8922" x2="64.8231" y2="97.6057" gradientUnits="userSpaceOnUse">
<stop stop-color="#546997"/>
<stop offset="0.333333" stop-color="#284878"/>
</linearGradient>
<linearGradient id="paint14_linear_358_8" x1="11.9456" y1="55.8922" x2="52.8644" y2="97.6057" gradientUnits="userSpaceOnUse">
<stop stop-color="#546997"/>
<stop offset="0.333333" stop-color="#284878"/>
</linearGradient>
</defs>
</svg>
